<svg xmlns="http://www.w3.org/2000/svg" viewBox="0 0 1829 1829"><defs><style>.cls-1,.cls-3{fill:#218bbd;}.cls-1{stroke:#bcbcbc;stroke-width:6px;}.cls-2{fill:#fff;}</style></defs><g id="Capa_2" data-name="Capa 2"><g id="Logo"><circle id="Circulo" class="cls-1" cx="914.5" cy="914.5" r="911.5" transform="translate(-378.8 914.5) rotate(-45)"/><g id="Letras"><path class="cls-2" d="M776.25,1104q-52.85,0-90.33,36.44t-37.48,88.38q0,54.62,34.49,91.07t92.6,36.46q22.63,0,47.46-7.7t24.28-17.79v37.56q0,37.27-27.19,64.86t-63.66,27.58q-26.37,0-45.29-9.16t-37.76-34.17l-10.85-14.41v75.38a109.44,109.44,0,0,0,24.36,16.54q29.19,14.25,69.54,14.26,60.74,0,103.83-42.39t43.09-100.6v-133q0-58.71-36-94T776.25,1104Zm54,179.39q-22.06,22-54.13,22-31.06,0-52.63-21T702,1230.27q0-33.49,22.23-55.66t52-22.17q31.47,0,53.83,22.31t22.36,53.33Q852.36,1261.41,830.3,1283.4Zm308.15-148.15q-35.09-31.24-83.72-31.24-53.16,0-90.81,36.4t-37.63,88.42q0,52.62,37.67,90.07t91.13,37.46a128.64,128.64,0,0,0,63.78-16.54q29.63-16.56,39.5-39.77l21.58,53.37,58.51,1.47q-28.83-71.57-57.67-143.14Q1173.55,1166.49,1138.45,1135.25ZM1110,1284.46q-22.4,23.47-54.86,23.47-30.83,0-53-22.28t-22.22-55.74q0-33.47,22.46-55.46t52.81-22q31.42,0,54.35,22t22.92,53.35Q1132.36,1261,1110,1284.46ZM552.18,1135.25Q517.08,1104,468.46,1104q-53.18,0-90.81,36.4T340,1228.83q0,52.62,37.68,90.07t91.13,37.46a128.64,128.64,0,0,0,63.78-16.54q29.61-16.56,39.49-39.77l21.59,53.37,58.51,1.47q-28.85-71.57-57.67-143.14Q587.26,1166.49,552.18,1135.25Zm-28.5,149.21q-22.41,23.47-54.86,23.47-30.84,0-53.05-22.28t-22.23-55.74q0-33.47,22.46-55.46t52.82-22q31.43,0,54.34,22t22.92,53.35Q546.08,1261,523.68,1284.46ZM1666,1131.63q-30.14-27.62-72-27.62-51.47,0-77.19,33.29-8.81-13.72-30-23.51A105.59,105.59,0,0,0,1442,1104q-41.19,0-72,24.89t-30.77,64.17v163.29h51V1205.85q0-22.62,16-38t36.12-15.39q21.56,0,35.71,17.37t14.16,41.3v145.25h51V1215.13q0-23.7,15.15-40.64t35.63-17q22.18,0,36.68,17.07t14.5,40.52v141.23h51v-158.2Q1696.09,1159.25,1666,1131.63Zm-421,224.73h53.52V958.72h-53.52Zm-1044.31-59q-.8-1.59-.8-13.58v-325H133.54v397.64H328.18v-58.63H204.55C202.06,1297.73,200.74,1297.61,200.61,1297.34Z"/></g><path id="MarcaRegistrada" class="cls-3" d="M1764.91,1391a51.69,51.69,0,0,1,20,3.9,50.31,50.31,0,0,1,16.76,11.38,51.89,51.89,0,0,1,11,56,48.6,48.6,0,0,1-11.17,16.37,54.72,54.72,0,0,1-17.07,11.35,50.41,50.41,0,0,1-19.51,3.94,49.88,49.88,0,0,1-19.58-3.94,53.73,53.73,0,0,1-27.89-28.13,50.66,50.66,0,0,1,.17-39.1,54.09,54.09,0,0,1,11.56-17.14,47.47,47.47,0,0,1,16.16-10.89A51.64,51.64,0,0,1,1764.91,1391Zm44.89,51.93a46.81,46.81,0,0,0-3.25-17.46,42.15,42.15,0,0,0-9.47-14.34,45.66,45.66,0,0,0-49.09-9.94,41.1,41.1,0,0,0-14.06,9.39,47.37,47.37,0,0,0-10.11,14.89,43.1,43.1,0,0,0-3.52,17,42.65,42.65,0,0,0,3.39,16.73,45.49,45.49,0,0,0,9.75,14.44,44.45,44.45,0,0,0,14.44,9.84,42.9,42.9,0,0,0,16.82,3.44,44.9,44.9,0,0,0,17.23-3.34,47.53,47.53,0,0,0,14.87-9.74,42.72,42.72,0,0,0,13-31Zm-43.56-30.73q12.15,0,18.26,4t6.11,12a15.47,15.47,0,0,1-3.51,10.35,16.7,16.7,0,0,1-9.89,5.38l13.11,26.73H1777.9l-11.8-25h-10.76v25H1744.4v-58.48Zm-2,7.14h-9v19.42h9.23q7.85,0,11.25-2.21c2.26-1.47,3.4-3.84,3.4-7.11q0-5.33-3.54-7.71T1764.29,1419.3Z"/></g></g></svg>